<?xml version="1.0" standalone="no"?>
<!DOCTYPE svg PUBLIC "-//W3C//DTD SVG 20010904//EN"
 "http://www.w3.org/TR/2001/REC-SVG-20010904/DTD/svg10.dtd">
<svg version="1.0" xmlns="http://www.w3.org/2000/svg"
 width="300.000000pt" height="303.000000pt" viewBox="0 0 300.000000 303.000000"
 preserveAspectRatio="xMidYMid meet">
<metadata>
Created by potrace 1.10, written by Peter Selinger 2001-2011
</metadata>
<g transform="translate(0.000000,303.000000) scale(0.100000,-0.100000)"
fill="#edf0f3">
<path d="M1455 2532 c-43 -27 -54 -44 -61 -93 -5 -37 -2 -50 21 -84 27 -38 28
-45 26 -157 -1 -107 -3 -121 -26 -154 -14 -20 -25 -51 -25 -68 0 -64 63 -126
127 -126 35 0 87 31 109 65 22 33 14 104 -15 141 -19 24 -21 39 -21 143 0 109
2 119 25 151 49 67 25 154 -51 186 -45 19 -73 18 -109 -4z m124 -38 c41 -34
44 -98 6 -134 -24 -23 -25 -27 -25 -160 0 -133 1 -137 25 -160 38 -36 35 -100
-6 -134 -43 -36 -91 -35 -130 3 -39 40 -40 91 -1 130 27 27 27 29 27 161 0
132 0 134 -27 161 -39 39 -38 90 1 130 39 38 87 39 130 3z"/>
<path d="M755 2249 c-32 -16 -65 -72 -65 -110 0 -65 61 -129 124 -129 18 0 47
-22 104 -79 66 -67 80 -86 86 -122 8 -51 52 -95 103 -105 72 -14 143 50 143
130 0 52 -56 110 -116 120 -33 6 -54 21 -116 84 -62 63 -77 84 -81 117 -9 59
-62 105 -119 104 -24 0 -52 -5 -63 -10z m129 -45 c19 -19 26 -37 26 -63 0 -33
9 -47 92 -129 82 -83 96 -92 129 -92 84 0 120 -100 59 -162 -28 -27 -36 -30
-73 -25 -54 7 -87 43 -87 95 0 34 -9 46 -90 127 -83 82 -93 89 -125 86 -49 -4
-95 42 -95 95 0 85 104 128 164 68z"/>
<path d="M2200 2253 c-59 -19 -100 -67 -100 -117 0 -21 -21 -48 -82 -112 -67
-69 -89 -85 -121 -91 -81 -13 -137 -84 -121 -156 8 -36 57 -84 95 -92 67 -15
141 39 152 112 5 32 21 53 89 120 68 66 90 82 124 87 74 13 125 84 109 155 -7
33 -48 75 -88 90 -30 12 -34 12 -57 4z m70 -38 c35 -18 50 -43 50 -85 0 -17
-5 -40 -10 -51 -14 -26 -67 -52 -95 -46 -19 3 -43 -16 -123 -97 -87 -88 -100
-105 -100 -136 -1 -26 -9 -42 -32 -62 -89 -81 -212 39 -134 131 21 25 33 31
67 31 39 0 47 6 139 97 87 87 98 102 98 133 0 78 70 121 140 85z"/>
<path d="M900 1531 c-44 -29 -48 -30 -160 -28 -101 2 -119 5 -147 25 -89 63
-218 -15 -198 -121 8 -41 22 -59 65 -86 47 -28 79 -27 126 6 37 25 45 27 159
27 113 1 122 -1 153 -24 82 -61 195 -2 194 101 -1 66 -45 114 -113 125 -27 4
-44 -1 -79 -25z m-313 -37 c21 -23 27 -24 154 -24 131 0 133 0 161 27 64 61
163 19 163 -68 0 -34 -6 -46 -33 -70 -43 -38 -81 -38 -125 1 -35 30 -35 30
-162 30 -127 0 -127 0 -162 -30 -44 -39 -82 -39 -125 -1 -27 24 -33 36 -33 69
0 89 103 131 162 66z"/>
<path d="M1472 1545 c-60 -26 -93 -90 -78 -150 9 -33 65 -84 102 -91 43 -8
100 18 124 58 41 67 17 147 -53 179 -50 22 -53 22 -95 4z m89 -31 c17 -8 37
-30 45 -50 12 -29 12 -39 0 -67 -15 -37 -54 -67 -86 -67 -29 0 -77 27 -90 49
-13 25 -13 77 0 101 12 23 57 49 83 50 10 0 32 -7 48 -16z"/>
<path d="M2015 1545 c-49 -21 -68 -50 -73 -108 -4 -46 -1 -57 22 -84 18 -22
41 -34 73 -41 51 -11 62 -9 113 26 33 22 42 24 146 20 90 -2 116 -7 132 -21
60 -55 156 -36 192 37 24 50 25 68 5 106 -37 71 -123 93 -191 47 -34 -24 -44
-25 -154 -24 -107 2 -121 4 -142 24 -29 28 -84 36 -123 18z m108 -45 l35 -30
135 0 c108 0 136 3 140 14 10 25 63 46 96 40 66 -14 103 -101 63 -150 -42 -52
-100 -58 -144 -14 l-30 30 -134 0 c-112 0 -136 -3 -141 -15 -7 -20 -55 -45
-85 -45 -34 0 -68 27 -85 67 -12 31 -12 38 4 71 33 66 92 79 146 32z" />
<path d="M1063 1150 c-35 -21 -63 -66 -63 -102 0 -16 -26 -49 -82 -105 -65
-63 -91 -82 -120 -87 -43 -8 -95 -48 -109 -85 -16 -40 -1 -97 33 -130 75 -73
186 -35 209 71 8 34 25 59 86 120 67 67 84 79 127 88 40 9 57 19 79 47 83 110
-43 255 -160 183z m131 -41 c55 -65 18 -159 -63 -159 -33 0 -48 -10 -135 -92
-82 -77 -96 -95 -91 -115 7 -28 -16 -76 -47 -97 -60 -42 -148 11 -148 89 0 40
50 88 93 89 31 1 48 14 131 94 86 83 96 97 96 128 0 51 45 94 98 94 33 0 45
-6 66 -31z" />
<path d="M1860 1149 c-40 -16 -79 -60 -86 -94 -13 -69 51 -145 121 -145 25 0
46 -16 113 -83 54 -55 82 -90 82 -105 0 -65 61 -122 129 -122 99 1 153 102
101 188 -20 33 -71 62 -108 62 -25 0 -182 158 -188 190 -17 85 -96 137 -164
109z m107 -52 c15 -15 25 -37 26 -60 2 -32 15 -50 92 -127 79 -80 94 -90 125
-90 45 0 78 -23 96 -66 12 -29 12 -39 0 -68 -18 -43 -66 -70 -106 -61 -40 9
-80 58 -80 98 0 27 -14 47 -92 124 -87 85 -96 92 -132 90 -32 -1 -44 5 -67 31
-84 94 49 219 138 129z" />
<path d="M1453 990 c-67 -40 -80 -120 -31 -191 22 -33 24 -46 24 -145 -1 -97
-4 -113 -24 -141 -31 -43 -37 -83 -18 -126 35 -84 141 -101 203 -33 42 45 45
96 8 150 -23 34 -25 46 -25 152 0 106 2 118 25 152 43 64 30 136 -34 179 -42
28 -86 29 -128 3z m125 -35 c16 -14 32 -37 35 -52 6 -31 -17 -89 -39 -97 -11
-4 -14 -33 -14 -142 0 -131 1 -137 25 -166 56 -66 14 -158 -72 -158 -82 0
-124 100 -67 157 26 26 26 29 26 161 -1 131 -2 136 -27 162 -82 86 41 212 133
135z" />
</g>
</svg>
